<?xml version="1.0" standalone="no"?>
<!DOCTYPE svg PUBLIC "-//W3C//DTD SVG 20010904//EN"
 "http://www.w3.org/TR/2001/REC-SVG-20010904/DTD/svg10.dtd">
<svg version="1.0" xmlns="http://www.w3.org/2000/svg"
 width="312.000000pt" height="312.000000pt" viewBox="0 0 312.000000 312.000000"
 preserveAspectRatio="xMidYMid meet">
<metadata>
Created by potrace 1.11, written by Peter Selinger 2001-2013
</metadata>
<g transform="translate(0.000000,312.000000) scale(0.100000,-0.100000)"
fill="#000000" stroke="none">
<path d="M2800 2556 c-220 -51 -225 -53 -223 -77 1 -13 7 -75 14 -137 27 -250
-36 -528 -172 -753 -246 -410 -718 -634 -1189 -565 -280 41 -501 155 -707 362
l-112 113 -198 -149 c-109 -82 -198 -156 -198 -164 0 -23 133 -172 225 -253
617 -541 1497 -588 2162 -117 111 79 307 277 390 394 272 385 381 877 296
1337 -11 59 -13 63 -37 62 -14 -1 -127 -25 -251 -53z"/>
</g>
</svg>
