<?xml version="1.0" encoding="UTF-8"?>
<svg width="551px" height="56px" viewBox="0 0 551 56" version="1.1" xmlns="http://www.w3.org/2000/svg" xmlns:xlink="http://www.w3.org/1999/xlink">
    <!-- Generator: Sketch 50.2 (55047) - http://www.bohemiancoding.com/sketch -->
    <title>squiggle</title>
    <desc>Created with Sketch.</desc>
    <defs></defs>
    <g id="Page-1" stroke="none" stroke-width="1" fill="none" fill-rule="evenodd">
        <g id="Artboard" transform="translate(-502.000000, -685.000000)" stroke="#F1D779" stroke-width="15">
            <g id="squiggle" transform="translate(502.000000, 693.000000)">
                <path d="M550,38.309292 C535.040543,38.830735 519.874342,32.716939 509.729084,19.953554 C490.472291,-4.28157 452.943203,-4.606874 433.243386,19.293379 L430.787062,22.273734 C411.387517,45.81998 374.562346,45.925225 355.020048,22.489009 L351.411861,18.173951 C331.869563,-5.262265 295.044392,-5.15702 275.639924,18.384442 L272.952243,21.65183 C253.32134,45.465973 215.979308,45.250699 196.638832,21.211714 L195.506659,19.810037 C176.028354,-4.410735 138.326979,-4.410735 118.848674,19.810037 L117.61805,21.336094 C98.282497,45.370296 60.935542,45.58557 41.3095622,21.771427 L37.9721118,17.724267 C28.2354205,5.908089 14.1177102,0 0,0" id="Stroke-1"></path>
            </g>
        </g>
    </g>
</svg>